PathFileType	4	(X/Y/Z)	\\Move.snu.ac.kr\motion\Animal\091204_091205_Bird\091205_bird\Project 2\Capture day 2\Session 1\pigeon_025.trc
DataRate	CameraRate	NumFrames	NumMarkers	Units	OrigDataRate	OrigDataStartFrame	OrigNumFrames
240.0	240.0	26	14	mm	240.0	49	2738
Frame#	Time	14MarkersBird:Head			14MarkersBird:C_back			14MarkersBird:Spine			14MarkersBird:L-shoulder			14MarkersBird:L-elbow			14MarkersBird:L-wrist			14MarkersBird:L-hand			14MarkersBird:R-shoulder			14MarkersBird:R-elbow			14MarkersBird:R-Wrist			14MarkersBird:R-hand			14MarkersBird:C_Tail			14MarkersBird:L-Tale			14MarkersBird:R-Tale			
		X1	Y1	Z1	X2	Y2	Z2	X3	Y3	Z3	X4	Y4	Z4	X5	Y5	Z5	X6	Y6	Z6	X7	Y7	Z7	X8	Y8	Z8	X9	Y9	Z9	X10	Y10	Z10	X11	Y11	Z11	X12	Y12	Z12	X13	Y13	Z13	X14	Y14	Z14	

1981	8.250	342.00009	1449.50208	1622.34326	344.91531	1400.87378	1661.34241	346.31989	1366.73230	1703.52112	316.11670	1409.28491	1640.55359	335.41290	1423.95874	1662.36304	303.23135	1457.93359	1662.18701	303.38177	1479.53430	1682.31506	366.29742	1414.80310	1638.42810	362.51019	1421.32629	1661.40991	385.68451	1456.51404	1672.97083	387.13931	1483.05188	1704.60657	368.63672	1268.59045	1774.57166	278.35028	1286.26709	1735.96729	443.18665	1298.31580	1721.11072	
1982	8.254	341.44949	1458.41553	1621.43372	343.14774	1409.60059	1660.37769	344.17709	1375.55981	1702.30933	314.33630	1417.88428	1637.82544	329.73016	1431.87073	1662.03845	294.77435	1463.70715	1657.82532	289.04163	1486.70825	1675.30371	366.28970	1422.97510	1637.38562	362.48267	1432.84277	1660.96045	394.04385	1460.46362	1671.74231	402.29187	1488.27930	1700.68127	365.81360	1279.18579	1775.24744	275.66788	1296.33289	1736.09119	440.45718	1307.07446	1721.19922	
1983	8.258	340.91028	1467.28870	1620.43958	341.44809	1418.40894	1659.36572	342.08133	1384.46057	1701.14526	312.81494	1426.46716	1634.62317	323.74625	1440.40674	1660.28906	286.39841	1468.46570	1651.79175	274.67484	1491.25525	1666.23975	366.37991	1431.14160	1636.09436	363.69080	1440.87805	1662.77930	402.20618	1463.06787	1668.23853	418.43777	1489.60327	1694.08801	362.06226	1289.22534	1775.52539	272.67975	1306.72559	1735.98303	437.51941	1315.48706	1720.97400	
1984	8.262	340.40164	1476.15601	1619.33472	339.83749	1427.32739	1658.26501	340.00266	1393.47607	1700.06958	311.43628	1434.97278	1630.97363	316.09683	1447.70654	1656.50488	278.57550	1472.06348	1643.89441	261.52600	1493.42932	1654.63879	366.33075	1439.01563	1634.49268	369.18491	1445.95349	1663.59900	409.82602	1464.36646	1662.36292	433.82623	1487.55554	1684.25330	357.35080	1298.70313	1775.41980	269.27551	1317.34351	1735.26965	434.27087	1323.49402	1720.52844	
1985	8.267	339.94153	1485.05054	1618.09192	338.33719	1436.38452	1657.03418	337.91113	1402.64783	1699.12305	310.21890	1443.31226	1627.13635	309.01810	1455.02795	1652.70264	271.89563	1474.31018	1634.29517	250.48239	1493.21155	1640.65747	366.27087	1446.71985	1632.55176	374.53519	1452.46497	1659.79626	416.28922	1464.28491	1654.31116	446.95581	1482.49646	1671.19238	351.68570	1307.63037	1774.86963	265.37448	1328.10559	1733.58447	430.61847	1330.99500	1719.92224	
1986	8.271	339.53415	1493.96692	1616.66589	336.92056	1445.54407	1655.72876	335.77686	1412.01758	1698.34619	308.97552	1451.10388	1622.73425	302.33200	1461.77222	1648.13513	267.12576	1475.19104	1623.56702	242.55624	1490.58191	1624.88647	366.16046	1454.43335	1630.46021	379.55389	1457.75073	1656.42139	420.62549	1462.89893	1644.48999	456.20822	1474.87085	1655.28052	345.13300	1316.04810	1773.75378	260.98401	1339.00012	1730.74597	426.52545	1337.92859	1719.20117	
1987	8.275	339.19714	1502.87390	1614.97949	335.58694	1455.80920	1655.17676	333.56985	1421.62683	1697.77966	308.43649	1460.02356	1619.91003	296.66940	1467.85754	1643.06604	265.05475	1475.08130	1612.57898	238.92487	1485.94446	1608.25720	365.90680	1462.32849	1628.52600	383.66058	1462.21252	1652.11133	421.79919	1460.67126	1633.58862	460.00000	1465.52185	1637.32446	337.82947	1324.04395	1771.94861	256.20734	1350.13098	1726.88464	422.01654	1344.37085	1718.44629	
1988	8.279	338.94382	1511.73975	1612.96899	334.29550	1465.70740	1654.60229	331.31494	1431.44885	1697.39612	308.01434	1469.08130	1617.44482	292.49774	1473.29993	1637.89880	266.17740	1474.81274	1602.27161	240.51361	1480.38708	1592.01123	365.47986	1470.50623	1626.99438	386.15579	1466.07117	1647.21326	419.16763	1458.55945	1622.52942	457.24045	1455.96838	1618.59094	329.96713	1331.74585	1769.35278	251.24243	1361.63953	1722.35339	417.13455	1350.48755	1717.78284	
1989	8.283	338.76880	1520.53247	1610.61865	333.12418	1475.62927	1654.20557	329.33710	1441.66321	1696.97205	307.75342	1478.16479	1615.40295	289.92126	1478.27661	1633.08301	270.34229	1475.52295	1593.42859	247.35587	1475.56042	1577.57874	364.90067	1478.94727	1625.92676	386.71021	1469.78979	1642.35352	412.87173	1457.82849	1612.28394	447.94525	1448.23291	1600.66125	321.79144	1339.29822	1765.93884	246.31767	1373.64709	1717.61914	411.92484	1356.45117	1717.36804	
1990	8.288	338.66345	1529.18835	1607.94971	332.10614	1485.38672	1653.79358	327.44254	1451.55884	1696.53638	307.59445	1487.25745	1613.71936	288.65222	1483.16846	1629.03479	276.60767	1478.29053	1586.58398	258.24118	1473.18494	1566.25085	364.20203	1487.52942	1625.18091	385.58493	1473.90479	1638.15552	403.98184	1459.71069	1603.69617	433.52695	1444.31226	1585.10706	313.57645	1346.85486	1761.76941	241.62395	1386.14978	1713.08862	406.41940	1362.39307	1717.34485	
1991	8.292	338.63126	1537.59888	1605.00439	331.23120	1494.89001	1653.15051	325.66205	1461.13037	1695.74524	307.47809	1496.34277	1612.32910	288.14606	1488.42407	1626.07080	283.41931	1483.78076	1582.06006	270.96692	1474.51599	1558.81458	363.42377	1496.10193	1624.51233	383.47772	1478.77551	1635.06091	394.28134	1465.04919	1597.41040	416.58777	1445.63794	1573.08020	305.55954	1354.57983	1756.99866	237.30142	1398.93079	1708.94006	400.59778	1368.39893	1717.74817	
1992	8.296	338.66559	1545.63403	1601.84521	330.46399	1504.13159	1652.08960	323.99603	1470.45093	1694.58972	307.34509	1505.40430	1611.16699	287.84158	1494.38367	1624.37256	289.11078	1492.06665	1579.93140	282.99316	1480.00269	1555.35388	362.63495	1504.57642	1623.73450	381.10101	1484.64026	1633.37891	385.76834	1473.98804	1593.78735	400.31311	1452.60266	1565.14319	297.90176	1362.63403	1751.89917	233.42157	1411.61230	1705.15564	394.41907	1374.52722	1718.45215	
1993	8.300	338.73071	1553.19458	1598.53027	329.76166	1513.11426	1650.49182	322.38242	1479.63611	1693.08289	307.13611	1514.42542	1610.16833	287.34906	1501.30029	1623.97815	292.50140	1502.68152	1579.92554	292.11850	1489.23206	1555.22083	361.89636	1512.96448	1622.78540	378.97995	1491.65002	1633.27905	379.93909	1485.84729	1592.82080	387.61859	1464.34802	1561.17505	290.71384	1371.13892	1746.84192	229.97766	1423.84106	1701.63208	387.94296	1380.84692	1719.24036	
1994	8.304	338.78369	1560.27625	1595.10669	329.09061	1521.83044	1648.34229	320.76508	1488.77600	1691.30078	306.79190	1523.38965	1609.26782	286.52908	1509.35083	1624.75549	293.18561	1514.86597	1581.43811	296.97455	1501.07703	1557.23071	361.17334	1521.31592	1621.65137	377.34705	1499.89136	1634.71875	377.32709	1499.44861	1594.13599	380.32578	1478.99963	1560.53076	284.07864	1380.12964	1742.22827	226.90375	1435.45117	1698.25330	381.38452	1387.41309	1719.89282	
1995	8.308	338.80984	1566.92493	1591.61108	328.43503	1530.26245	1645.74109	319.12729	1497.86450	1689.32373	306.25311	1532.28064	1608.40051	285.52579	1518.55298	1626.33948	291.45633	1527.93921	1583.74426	297.17041	1514.13892	1560.10620	360.36279	1529.61206	1620.32507	376.04196	1509.34192	1637.38135	377.55911	1513.70068	1597.11218	378.89856	1494.47107	1562.40771	278.04367	1389.52905	1738.36279	224.11252	1446.45349	1694.85352	375.00955	1394.20178	1720.21069	
1996	8.313	338.79907	1573.20557	1588.08923	327.79492	1538.39490	1642.86145	317.48715	1506.82434	1687.23853	305.46048	1541.08167	1607.50159	284.67700	1528.76855	1628.22583	288.12906	1541.52417	1586.29065	293.10605	1527.31213	1563.02600	359.43600	1537.75159	1618.77759	374.58731	1519.86792	1640.72522	379.67035	1527.96375	1601.09863	382.65414	1509.26843	1566.31018	272.60043	1399.14551	1735.31128	221.51035	1456.97974	1691.18994	368.99524	1401.09009	1720.00439	
1997	8.317	338.75748	1579.15894	1584.60901	327.17047	1546.21570	1639.89050	315.85507	1515.55054	1685.10913	304.44507	1549.80029	1606.62036	284.36426	1539.70862	1629.97241	284.30859	1555.47314	1588.89954	285.69131	1540.09204	1566.07019	358.45865	1545.63464	1616.98364	372.39914	1531.23853	1644.06958	382.39801	1542.04883	1605.58069	390.08630	1522.89075	1572.22876	267.68289	1408.71985	1732.83142	219.02046	1467.19043	1687.03101	363.35590	1407.90601	1719.08508	
1998	8.321	338.68701	1584.84656	1581.25049	326.58203	1553.63147	1636.89514	314.23584	1523.97241	1682.95300	304.27484	1556.94202	1604.21558	284.90402	1551.04285	1631.38037	281.08029	1569.57446	1591.61438	276.28937	1552.54797	1570.21936	357.50970	1553.28040	1614.96997	368.98096	1543.14233	1646.75867	384.50092	1555.92139	1610.21594	399.11502	1535.79041	1580.41797	263.20218	1417.99585	1730.44519	216.61267	1477.24902	1682.28821	358.11050	1414.57898	1717.37305	
1999	8.325	338.55872	1590.39294	1578.07922	326.01849	1560.61865	1633.90942	312.63828	1532.07471	1680.72266	303.91245	1564.42273	1601.96069	286.52600	1562.41895	1632.41968	279.16302	1583.40759	1594.40442	266.75513	1565.07983	1576.64392	356.55573	1560.81018	1612.88464	364.14093	1555.18127	1648.24097	385.10162	1569.51270	1614.73633	407.44141	1549.00586	1590.86951	259.08658	1426.76270	1727.60876	214.30557	1487.29956	1677.06274	353.35504	1421.16528	1715.04431	
2000	8.329	338.35196	1595.93677	1575.13843	325.37207	1568.21289	1631.48059	311.09241	1539.84937	1678.37219	303.75641	1571.81482	1599.36438	289.30136	1573.38647	1633.03052	278.77737	1596.55322	1597.13318	259.11115	1578.21326	1585.66541	355.43567	1568.32959	1610.89563	358.11578	1566.95422	1648.24988	383.88065	1582.78406	1618.85547	413.18002	1563.38062	1603.17053	255.29193	1434.86072	1723.92603	212.14638	1497.35986	1671.57629	349.38849	1427.86792	1712.49023	
2001	8.333	338.08313	1601.57434	1572.45325	325.38779	1571.57446	1626.14368	309.60889	1547.33032	1675.93286	303.80685	1579.17651	1596.58008	293.10089	1583.60193	1632.97009	279.78650	1608.89233	1599.74011	254.75269	1592.44470	1596.28821	353.96805	1575.81909	1609.02576	351.48331	1578.04712	1646.88062	380.94449	1595.79468	1622.31067	415.17050	1579.12952	1616.50903	251.82401	1442.21631	1719.26221	210.15962	1507.31482	1666.14612	346.48627	1434.85938	1710.08594	
2002	8.337	337.77435	1607.39587	1570.03540	325.15891	1575.49585	1621.46533	308.17325	1554.56897	1673.48010	304.00986	1586.42102	1593.78870	297.50876	1592.92773	1632.07678	281.92035	1620.61096	1602.24329	254.01781	1607.99243	1606.82544	352.28009	1583.66431	1607.21838	344.90662	1588.14355	1644.41626	376.48874	1608.67151	1624.84424	412.81845	1596.02283	1629.68579	248.75368	1448.85852	1713.74951	208.28596	1517.05884	1661.17603	344.63342	1442.13574	1707.99011	
2003	8.342	337.44467	1613.45532	1567.87610	324.63434	1580.05127	1617.62134	306.74841	1561.56946	1671.06934	304.22964	1593.42566	1591.13232	302.07098	1601.47888	1630.26147	284.92017	1631.87146	1604.58264	256.62012	1624.53735	1615.98340	349.66324	1590.28149	1605.48450	338.69818	1597.18530	1641.08228	370.67401	1621.42151	1626.15991	406.12396	1613.62195	1641.25183	246.15437	1454.88318	1707.69836	206.42874	1526.51941	1656.96716	343.60049	1449.54468	1706.15540	
2004	8.346	337.09601	1619.74976	1565.93738	323.85208	1585.16931	1614.50293	305.27158	1568.29565	1668.70593	304.32242	1600.10181	1588.68604	306.29318	1609.27112	1627.90369	288.55289	1642.59717	1606.50696	262.20099	1641.20862	1623.23291	347.35974	1596.77100	1603.60132	332.70984	1605.38293	1638.12073	363.87778	1633.77808	1625.90906	395.75818	1631.40759	1649.85059	244.00012	1460.47778	1701.55481	204.55499	1535.58130	1653.48950	343.13879	1456.90088	1704.46143	
2005	8.350	336.73340	1626.22510	1564.15784	322.85019	1590.77869	1612.00122	303.68613	1574.71167	1666.34961	304.16953	1606.46472	1586.47302	310.01270	1616.41565	1625.25586	292.42050	1652.58594	1607.64441	270.23337	1656.87903	1628.44165	345.45004	1603.08008	1601.54102	328.51709	1613.03723	1632.96875	356.90973	1645.30786	1623.83997	383.00452	1648.84631	1654.41724	242.12425	1465.91711	1695.90173	202.68140	1544.14575	1650.52417	343.01685	1464.05994	1702.83582	
2006	8.354	336.36148	1632.82007	1562.47339	321.66666	1596.80798	1610.00745	301.98447	1580.77356	1663.98999	303.70358	1612.58801	1584.46289	313.33545	1623.24524	1622.11108	295.82614	1661.73853	1607.73169	279.63644	1670.63916	1631.55969	343.90042	1609.22424	1599.31909	324.64383	1619.76025	1627.27087	350.88550	1655.65381	1620.07617	369.62405	1665.48364	1654.53699	240.26093	1471.48279	1691.38440	200.81410	1552.23926	1647.95178	343.11078	1471.04114	1701.34912	
